<?xml version="1.0" encoding="UTF-8"?>
<svg xmlns="http://www.w3.org/2000/svg" xmlns:xlink="http://www.w3.org/1999/xlink" width="250px" height="250px" viewBox="0 0 250 250" version="1.1">
<g id="surface1">
<path style=" stroke:none;fill-rule:nonzero;fill:rgb(0%,0%,0%);fill-opacity:1;" d="M 119.613281 77.105469 C 118.375 80.019531 116.019531 85.570312 114.421875 89.398438 C 112.789062 93.230469 108.875 102.410156 105.761719 109.753906 C 102.652344 117.097656 98.777344 126.15625 97.183594 129.90625 C 95.625 133.621094 92.914062 139.964844 91.195312 144 C 89.519531 148.027344 88.203125 151.382812 88.324219 151.539062 C 89.320312 152.496094 102.691406 152.496094 103.929688 151.5 C 104.367188 151.140625 120.132812 113.105469 123.765625 103.648438 C 124.242188 102.410156 124.761719 101.371094 124.878906 101.371094 C 125.039062 101.371094 125.878906 103.167969 126.714844 105.363281 L 128.273438 109.394531 L 129.191406 107.480469 C 131.027344 103.765625 134.9375 100.972656 138.410156 100.972656 C 139.886719 100.972656 140.167969 100.855469 139.964844 100.257812 C 139.847656 99.898438 137.371094 93.910156 134.417969 87.007812 C 131.464844 80.101562 128.832031 73.832031 128.550781 73.117188 L 128.03125 71.839844 L 121.886719 71.839844 Z M 119.613281 77.105469 "/>
<path style=" stroke:none;fill-rule:nonzero;fill:rgb(0%,0%,0%);fill-opacity:1;" d="M 152.457031 90.078125 C 148.386719 91.476562 145.035156 95.625 143.835938 100.816406 C 143.277344 103.207031 143 103.726562 142.519531 103.527344 C 142.164062 103.367188 140.804688 103.167969 139.449219 103.050781 C 133.980469 102.652344 129.90625 106.917969 129.949219 113.148438 C 129.949219 116.578125 131.148438 119.175781 134.21875 122.445312 C 136.414062 124.761719 141.921875 128.589844 145.835938 130.589844 L 148.226562 131.785156 L 146.832031 132.941406 C 128.871094 147.988281 109.035156 155.648438 91.953125 154.054688 C 89.398438 153.8125 87.242188 153.695312 87.164062 153.773438 C 87.085938 153.855469 85.886719 156.609375 84.449219 159.882812 C 80.339844 169.5 79.0625 172.132812 77.90625 173.332031 C 76.546875 174.769531 73.597656 176.285156 71.800781 176.484375 C 70.921875 176.605469 70.402344 176.882812 70.324219 177.320312 C 70.203125 177.960938 71.480469 178.003906 87.363281 178.003906 C 102.050781 178.003906 104.566406 177.921875 104.566406 177.441406 C 104.566406 177.042969 103.929688 176.761719 102.691406 176.566406 C 100.136719 176.207031 98.699219 175.40625 97.78125 173.890625 C 96.503906 171.816406 96.78125 169.9375 99.296875 163.832031 L 101.613281 158.246094 L 105.203125 157.769531 C 109.59375 157.207031 114.222656 156.050781 118.8125 154.375 L 122.246094 153.136719 L 123.082031 154.292969 C 125.878906 158.207031 130.191406 161.757812 134.578125 163.832031 C 139.128906 165.988281 142 166.585938 147.46875 166.625 C 154.972656 166.625 160.199219 164.789062 165.988281 160.199219 L 168.863281 157.925781 L 167.347656 156.332031 C 164.710938 153.578125 159.644531 150.0625 155.09375 147.828125 C 150.703125 145.714844 146.3125 144.4375 141.5625 143.878906 L 139.25 143.597656 L 143.558594 140.40625 C 145.914062 138.648438 148.988281 136.214844 150.382812 135.058594 C 151.78125 133.859375 153.257812 132.902344 153.617188 132.902344 C 154.015625 132.902344 155.691406 132.542969 157.328125 132.144531 C 168.34375 129.3125 176.207031 121.167969 174.371094 114.464844 C 173.851562 112.425781 171.617188 109.996094 169.460938 109.117188 L 167.746094 108.398438 L 167.945312 104.765625 C 168.144531 100.535156 167.464844 97.460938 165.589844 94.546875 C 162.875 90.277344 157.328125 88.363281 152.457031 90.078125 Z M 160.359375 94.707031 C 163.433594 96.703125 164.828125 102.25 163.632812 107.71875 C 162.675781 112.347656 157.925781 120.648438 153.136719 126.15625 C 151.382812 128.191406 151.421875 128.234375 149.703125 123.480469 C 146.472656 114.625 145.992188 104.488281 148.589844 99.058594 C 149.546875 96.941406 151.660156 94.75 153.414062 93.949219 C 155.292969 93.109375 158.484375 93.433594 160.359375 94.707031 Z M 141.960938 107.597656 C 142.640625 108.039062 142.878906 108.675781 143.082031 110.832031 C 143.558594 116.179688 144.875 122.207031 146.273438 125.398438 C 146.753906 126.519531 145.914062 126.277344 142.800781 124.28125 C 137.171875 120.648438 133.699219 116.421875 133.699219 113.066406 C 133.699219 110.234375 135.578125 107.4375 137.890625 106.839844 C 138.96875 106.5625 140.882812 106.917969 141.960938 107.597656 Z M 168.023438 112.75 C 169.460938 113.503906 170.816406 115.222656 170.816406 116.300781 C 170.816406 117.933594 168.941406 121.167969 166.90625 122.964844 C 164.910156 124.800781 160.160156 127.394531 157.847656 127.953125 L 156.648438 128.234375 L 157.769531 126.753906 C 160.523438 123.164062 163.234375 118.890625 164.828125 115.621094 C 165.789062 113.707031 166.625 112.148438 166.707031 112.148438 C 166.785156 112.148438 167.386719 112.425781 168.023438 112.75 Z M 143.71875 148.070312 C 147.109375 148.707031 150.863281 150.023438 153.976562 151.578125 C 157.085938 153.179688 162.835938 157.085938 162.835938 157.566406 C 162.835938 158.125 158.566406 160.480469 155.570312 161.558594 C 152.9375 162.515625 152.140625 162.636719 147.269531 162.59375 C 142.359375 162.59375 141.601562 162.476562 138.890625 161.480469 C 137.25 160.839844 134.820312 159.644531 133.421875 158.765625 C 131.066406 157.289062 126.117188 152.457031 126.117188 151.660156 C 126.117188 151.101562 130.785156 148.824219 133.101562 148.226562 C 135.578125 147.628906 140.882812 147.550781 143.71875 148.070312 Z M 143.71875 148.070312 "/>
<path style=" stroke:none;fill-rule:nonzero;fill:rgb(0%,0%,0%);fill-opacity:1;" d="M 164.828125 163.511719 C 162.398438 165.230469 157.289062 167.386719 153.578125 168.183594 C 152.539062 168.421875 152.496094 168.5 152.738281 170.335938 C 153.136719 173.8125 151.179688 176.046875 147.230469 176.566406 C 145.914062 176.761719 145.273438 177.003906 145.273438 177.402344 C 145.273438 177.921875 147.628906 178.003906 162.359375 178.003906 C 177.242188 178.003906 179.476562 177.921875 179.476562 177.402344 C 179.476562 177.042969 178.921875 176.722656 178.042969 176.566406 C 176.046875 176.207031 173.210938 174.6875 171.933594 173.332031 C 171.335938 172.691406 169.859375 170.097656 168.664062 167.503906 C 167.503906 164.910156 166.46875 162.714844 166.386719 162.636719 C 166.308594 162.59375 165.589844 162.953125 164.828125 163.511719 Z M 164.828125 163.511719 "/>
</g>
</svg>
